<svg width="68" height="65" viewBox="0 0 68 65" fill="none" xmlns="http://www.w3.org/2000/svg">
<path d="M11.438 48C8.47538 46.6702 6.04932 44.3363 4.56703 41.3901C3.08473 38.4439 2.63644 35.0647 3.2974 31.8199C3.95837 28.575 5.68834 25.6619 8.19695 23.5697C10.7056 21.4774 13.8401 20.3333 17.0743 20.3294H20.6252C21.5186 16.784 23.2212 13.5069 25.5928 10.7683C27.9644 8.02971 30.9371 5.90798 34.2659 4.57802C37.5946 3.24805 41.1841 2.74793 44.7385 3.11888C48.2928 3.48982 51.7103 4.72121 54.7092 6.71155C57.708 8.70188 60.2025 11.3942 61.9868 14.5665C63.7712 17.7388 64.7944 21.3004 64.9721 24.9576C65.1498 28.6148 64.4769 32.2629 63.009 35.6012C61.541 38.9396 59.3199 41.8726 56.5289 44.1585" stroke="#7D7D7D" stroke-width="5" stroke-linecap="round" stroke-linejoin="round"/>
<rect x="20" y="44" width="6" height="6" rx="3" fill="#7D7D7D"/>
<rect x="20" y="53" width="6" height="6" rx="3" fill="#7D7D7D"/>
<rect x="30" y="50" width="6" height="6" rx="3" fill="#7D7D7D"/>
<rect x="30" y="59" width="6" height="6" rx="3" fill="#7D7D7D"/>
<rect x="40" y="44" width="6" height="6" rx="3" fill="#7D7D7D"/>
<rect x="40" y="53" width="6" height="6" rx="3" fill="#7D7D7D"/>
</svg>
