<svg width="202" height="195" viewBox="0 0 202 195" fill="none" xmlns="http://www.w3.org/2000/svg">
<path d="M43.8994 51.125L52.946 51.125C55.6322 40.7103 61.1827 31.2587 68.9668 23.8441C76.7509 16.4295 86.4565 11.3493 96.9807 9.18074C107.505 7.01216 118.426 7.84217 128.502 11.5764C138.579 15.3107 147.407 21.7995 153.984 30.3056C160.56 38.8116 164.622 48.9937 165.707 59.695C166.791 70.3963 164.856 81.1877 160.12 90.8428C155.384 100.498 148.038 108.63 138.916 114.314C129.795 119.999 119.263 123.008 108.518 123L43.8994 123C34.3783 123 25.2471 119.214 18.5147 112.474C11.7822 105.735 8.00001 96.5937 8.00001 87.0625C8 77.5313 11.7822 68.3904 18.5147 61.6508C25.2471 54.9113 34.3783 51.125 43.8994 51.125Z" stroke="#7D7D7D" stroke-width="16" stroke-linecap="round" stroke-linejoin="round"/>
<path d="M130 195C169.765 195 202 162.765 202 123C202 83.2355 169.765 51 130 51C90.2355 51 58 83.2355 58 123C58 162.765 90.2355 195 130 195Z" fill="#FEE25C"/>
</svg>
