<svg width="24" height="24" viewBox="0 0 24 24" fill="none" xmlns="http://www.w3.org/2000/svg">
<path d="M16 19V21" stroke="#B6BDFF" stroke-width="2" stroke-linecap="round" stroke-linejoin="round"/>
<path d="M16 13V15" stroke="#B6BDFF" stroke-width="2" stroke-linecap="round" stroke-linejoin="round"/>
<path d="M8 19V21" stroke="#B6BDFF" stroke-width="2" stroke-linecap="round" stroke-linejoin="round"/>
<path d="M8 13V15" stroke="#B6BDFF" stroke-width="2" stroke-linecap="round" stroke-linejoin="round"/>
<path d="M12 21V23" stroke="#B6BDFF" stroke-width="2" stroke-linecap="round" stroke-linejoin="round"/>
<path d="M12 15V17" stroke="#B6BDFF" stroke-width="2" stroke-linecap="round" stroke-linejoin="round"/>
<path d="M3.99412 17C2.94288 16.5272 2.08202 15.6973 1.55604 14.6498C1.03007 13.6023 0.870994 12.4008 1.10553 11.2471C1.34006 10.0933 1.95393 9.05758 2.84408 8.31366C3.73423 7.56975 4.84648 7.16295 5.99412 7.16156H7.25412C7.5711 5.90097 8.17526 4.73579 9.01681 3.76207C9.85835 2.78834 10.9132 2.03395 12.0943 1.56107C13.2755 1.0882 14.5492 0.910376 15.8104 1.04227C17.0717 1.17416 18.2843 1.61199 19.3484 2.31966C20.4125 3.02734 21.2976 3.9846 21.9308 5.11254C22.564 6.24048 22.927 7.50681 22.9901 8.80714C23.0532 10.1075 22.8144 11.4046 22.2935 12.5916C21.7726 13.7785 20.9845 14.8214 19.9941 15.6341" stroke="#7D7D7D" stroke-width="2" stroke-linecap="round" stroke-linejoin="round"/>
</svg>
