<svg width="41" height="31" viewBox="0 0 41 31" fill="none" xmlns="http://www.w3.org/2000/svg">
<path d="M10.4068 12.125L12.5253 12.125C13.1544 9.67981 14.4542 7.46073 16.277 5.71992C18.0999 3.97911 20.3727 2.78636 22.8373 2.27722C25.3018 1.76807 27.8592 1.96294 30.2189 2.83969C32.5786 3.71643 34.6459 5.23989 36.186 7.23696C37.7261 9.23402 38.6772 11.6246 38.9313 14.1371C39.1853 16.6496 38.7321 19.1832 37.6231 21.4501C36.5141 23.7169 34.7938 25.6261 32.6576 26.9608C30.5215 28.2954 28.0553 29.0019 25.5391 29L10.4068 29C8.17718 29 6.03888 28.111 4.46229 26.5287C2.88571 24.9464 2 22.8003 2 20.5625C2 18.3247 2.88571 16.1786 4.46229 14.5963C6.03888 13.0139 8.17718 12.125 10.4068 12.125Z" stroke="#7D7D7D" stroke-width="4" stroke-linecap="round" stroke-linejoin="round"/>
</svg>
